<svg version="1.1" id="Layer_1" xmlns="http://www.w3.org/2000/svg" xmlns:xlink="http://www.w3.org/1999/xlink" x="0px" y="0px"
	 width="100%" viewBox="0 0 462 150" enable-background="new 0 0 462 150" xml:space="preserve">
<path fill="#000000" opacity="1.000000" stroke="none" 
	d="
M293.000000,151.000000 
	C195.333359,151.000000 98.166725,151.000000 1.000065,151.000000 
	C1.000043,101.000046 1.000043,51.000088 1.000022,1.000099 
	C154.999908,1.000066 308.999817,1.000066 462.999817,1.000033 
	C462.999878,50.999893 462.999878,100.999786 462.999939,150.999847 
	C406.500000,151.000000 350.000000,151.000000 293.000000,151.000000 
M435.035248,45.969784 
	C435.035248,45.969784 434.972260,45.853939 434.156433,45.603142 
	C434.156433,42.858944 434.156433,40.114746 434.156433,36.982273 
	C430.186584,36.982273 426.756866,36.844517 423.343689,37.023174 
	C420.273071,37.183907 417.220612,37.691776 414.021545,38.968864 
	C414.021545,63.884556 414.021545,88.800247 414.021545,113.834198 
	C420.744995,113.834198 426.878998,113.834198 433.832794,113.556686 
	C433.834595,102.044662 433.836395,90.532639 434.008545,78.206375 
	C434.339111,76.463577 434.682343,74.723068 434.998047,72.977585 
	C436.248260,66.065704 437.937927,59.253071 445.694702,56.910416 
	C449.724274,55.693428 454.066833,55.512802 458.677917,54.800713 
	C458.677917,49.631573 458.677917,43.434521 458.677917,37.227646 
	C449.688721,36.340084 441.558960,37.006615 435.411835,45.109577 
	C435.247833,45.417587 435.083862,45.725597 435.035248,45.969784 
M350.972351,82.012650 
	C368.798615,82.008430 386.625000,82.027107 404.451019,81.957535 
	C405.913483,81.951828 407.373596,81.345459 408.976746,80.097458 
	C408.659180,75.352402 408.959015,70.465645 407.908539,65.888817 
	C404.739166,52.080658 397.245636,41.698746 382.812866,38.021648 
	C377.668884,36.711094 372.275665,35.701153 367.000610,35.721008 
	C355.310425,35.765011 345.392242,40.155643 337.819000,49.432716 
	C329.074677,60.144341 327.235260,72.386612 330.061157,85.407013 
	C332.509979,96.690117 338.693512,105.618523 349.201416,111.015816 
	C362.364349,117.776833 375.862488,117.834274 389.346497,112.177826 
	C397.488831,108.762169 403.788361,103.203270 407.500214,94.464371 
	C401.670135,92.542480 396.357941,90.687057 390.961945,89.120293 
	C390.112030,88.873512 388.495117,89.640579 387.892914,90.437614 
	C384.476654,94.959183 380.050995,97.849380 374.517517,98.734772 
	C363.005890,100.576698 350.292847,95.115990 350.972351,82.012650 
M81.704041,145.185745 
	C85.622368,145.123611 89.540550,145.047119 93.459091,145.004913 
	C95.679718,144.980988 97.900948,145.013245 100.861092,144.575897 
	C100.907150,133.217407 100.920082,121.858574 101.039719,110.500870 
	C101.055275,109.023735 101.620575,107.552391 102.197998,106.706406 
	C112.643028,117.329819 127.392921,118.474480 140.243423,112.781410 
	C164.748383,101.925201 171.042618,68.141350 152.037109,47.504532 
	C143.631409,38.377323 133.178589,35.265209 121.151237,35.975586 
	C113.519485,36.426342 106.949432,38.955441 101.155342,44.583015 
	C101.047882,42.150658 100.940414,39.718300 100.832657,37.279091 
	C93.758873,37.279091 87.018242,37.279091 80.242966,37.279091 
	C80.138969,38.022606 80.014442,38.497845 80.014290,38.973129 
	C80.003326,73.299194 79.994255,107.625267 80.041588,141.951263 
	C80.042908,142.912918 80.655701,143.873734 81.704041,145.185745 
M323.998810,77.500000 
	C323.998810,53.077644 323.998810,28.655289 323.998810,4.373283 
	C316.933228,4.373283 310.537048,4.373283 303.687927,4.373283 
	C303.687927,18.101343 303.687927,31.460070 303.687927,45.612144 
	C295.801331,38.581104 287.410187,35.684193 277.576813,35.706203 
	C267.071442,35.729713 258.107422,39.709732 251.734711,47.077988 
	C236.657043,64.511101 237.877014,94.982140 257.619232,108.933670 
	C265.488403,114.494682 274.339722,117.196404 284.430450,115.390282 
	C291.764984,114.077499 298.046570,111.128708 304.186768,106.000885 
	C304.186768,109.097740 304.186768,111.370712 304.186768,113.704620 
	C310.884247,113.704620 317.288055,113.704620 323.998810,113.704620 
	C323.998810,101.775314 323.998810,90.137657 323.998810,77.500000 
M237.499252,58.004265 
	C240.287445,51.448704 243.075638,44.893139 246.006317,38.002579 
	C239.244400,38.002579 233.074921,37.813274 226.932358,38.136154 
	C225.403519,38.216518 223.199921,39.618340 222.603958,40.980461 
	C218.846466,49.568356 215.510666,58.339428 211.924240,67.003914 
	C209.128754,73.757561 206.171799,80.444374 202.905807,88.047348 
	C195.952438,72.047539 189.521179,57.090450 182.893463,42.220913 
	C182.153702,40.561245 180.371033,38.289795 178.947220,38.195992 
	C172.402100,37.764786 165.812653,38.006081 158.621078,38.006081 
	C169.566498,61.638802 180.137711,84.566322 190.835632,107.434555 
	C192.208328,110.368866 192.494720,112.772766 191.080170,115.922585 
	C186.851974,125.337708 183.098709,134.966110 178.959167,144.997910 
	C184.117233,144.997910 188.934860,144.670807 193.686707,145.089676 
	C198.461411,145.510559 201.863403,144.755524 203.020721,139.380051 
	C203.524857,137.038483 204.832291,134.869003 205.782013,132.624405 
	C216.213287,107.970581 226.645996,83.317375 237.499252,58.004265 
M43.907749,52.032150 
	C47.174519,54.085545 50.442642,56.136787 53.707195,58.193695 
	C54.642292,58.782871 55.746696,60.068867 56.468021,59.878433 
	C62.046371,58.405682 67.549736,56.648903 73.680367,54.797714 
	C67.708595,45.636196 60.786236,38.877678 50.234440,37.060650 
	C45.577194,36.258675 40.818188,35.791130 36.094139,35.688347 
	C26.974834,35.489941 14.491676,41.071152 10.138494,50.503841 
	C6.945654,57.422234 8.201082,68.928139 15.539472,72.886192 
	C21.470032,76.084930 27.841612,78.519463 34.150738,80.946831 
	C39.733887,83.094902 45.627232,84.459480 51.147404,86.741409 
	C55.768131,88.651527 56.199886,91.395294 53.285480,95.201820 
	C49.566467,100.059265 44.018826,99.739738 39.041561,99.346626 
	C31.391230,98.742386 25.862843,94.339394 22.959742,86.856216 
	C16.460691,88.741425 10.376244,90.506371 4.269043,92.277908 
	C7.758080,101.333397 13.911566,107.720963 22.317245,111.640381 
	C35.305023,117.696327 48.578953,117.796303 61.626385,111.759361 
	C72.832199,106.574516 77.900726,95.050163 73.942902,84.096771 
	C70.937706,75.779808 63.709110,72.498962 56.028343,70.041756 
	C48.394657,67.599602 40.675674,65.424194 33.040771,62.985695 
	C27.996754,61.374695 26.943678,57.100704 31.411882,54.489841 
	C34.662598,52.590374 39.120686,52.757187 43.907749,52.032150 
z"/>
<path fill="#FF687F" opacity="1.000000" stroke="none" 
	d="
M323.998810,78.000000 
	C323.998810,90.137657 323.998810,101.775314 323.998810,113.704620 
	C317.288055,113.704620 310.884247,113.704620 304.186768,113.704620 
	C304.186768,111.370712 304.186768,109.097740 304.186768,106.000885 
	C298.046570,111.128708 291.764984,114.077499 284.430450,115.390282 
	C274.339722,117.196404 265.488403,114.494682 257.619232,108.933670 
	C237.877014,94.982140 236.657043,64.511101 251.734711,47.077988 
	C258.107422,39.709732 267.071442,35.729713 277.576813,35.706203 
	C287.410187,35.684193 295.801331,38.581104 303.687927,45.612144 
	C303.687927,31.460070 303.687927,18.101343 303.687927,4.373283 
	C310.537048,4.373283 316.933228,4.373283 323.998810,4.373283 
	C323.998810,28.655289 323.998810,53.077644 323.998810,78.000000 
M264.354187,86.850975 
	C269.798981,97.315117 279.742493,99.129768 286.769867,97.440170 
	C295.568970,95.324608 301.771210,89.135262 303.702576,80.193512 
	C305.514160,71.806511 302.714905,64.498817 296.126526,58.491863 
	C288.900116,51.903202 272.508606,52.114304 266.379822,61.981705 
	C261.514404,69.815125 260.788483,77.678734 264.354187,86.850975 
z"/>
<path fill="#FF687F" opacity="1.000000" stroke="none" 
	d="
M100.121910,145.020203 
	C97.900948,145.013245 95.679718,144.980988 93.459091,145.004913 
	C89.540550,145.047119 85.622368,145.123611 81.346481,144.552246 
	C80.991318,112.624672 80.993958,81.330612 80.995972,50.036556 
	C80.996750,37.978134 80.998550,38.124302 93.060150,37.921841 
	C97.671066,37.844440 101.101776,38.228298 100.100410,44.160145 
	C100.075676,44.306702 101.292908,44.662914 101.930885,44.921345 
	C106.949432,38.955441 113.519485,36.426342 121.151237,35.975586 
	C133.178589,35.265209 143.631409,38.377323 152.037109,47.504532 
	C171.042618,68.141350 164.748383,101.925201 140.243423,112.781410 
	C127.392921,118.474480 112.643028,117.329819 101.986359,106.101601 
	C101.185638,106.309380 100.088402,107.119011 100.083679,107.934982 
	C100.012100,120.296234 100.083771,132.658310 100.121910,145.020203 
M139.563232,64.117920 
	C134.703918,55.633289 124.978439,52.350067 115.550659,54.705608 
	C106.008392,57.089760 99.374580,67.529343 100.933144,79.835999 
	C102.503349,92.234581 113.083679,98.877258 123.724808,97.702751 
	C139.037430,96.012619 146.646683,79.045135 139.563232,64.117920 
z"/>
<path fill="#FF687F" opacity="1.000000" stroke="none" 
	d="
M350.041931,82.128296 
	C350.292847,95.115990 363.005890,100.576698 374.517517,98.734772 
	C380.050995,97.849380 384.476654,94.959183 387.892914,90.437614 
	C388.495117,89.640579 390.112030,88.873512 390.961945,89.120293 
	C396.357941,90.687057 401.670135,92.542480 407.500214,94.464371 
	C403.788361,103.203270 397.488831,108.762169 389.346497,112.177826 
	C375.862488,117.834274 362.364349,117.776833 349.201416,111.015816 
	C338.693512,105.618523 332.509979,96.690117 330.061157,85.407013 
	C327.235260,72.386612 329.074677,60.144341 337.819000,49.432716 
	C345.392242,40.155643 355.310425,35.765011 367.000610,35.721008 
	C372.275665,35.701153 377.668884,36.711094 382.812866,38.021648 
	C397.245636,41.698746 404.739166,52.080658 407.908539,65.888817 
	C408.959015,70.465645 408.659180,75.352402 408.447693,80.555023 
	C390.202637,81.010193 372.486542,80.979408 354.770874,81.054237 
	C353.193085,81.060890 351.618164,81.753998 350.041931,82.128296 
M379.824280,55.343197 
	C377.965240,54.796642 376.086975,54.307693 374.250427,53.693878 
	C364.686218,50.497334 350.549347,57.093513 350.194122,68.723709 
	C362.734589,68.723709 375.268280,68.723709 388.234314,68.723709 
	C387.457794,63.091042 385.412994,58.615593 379.824280,55.343197 
z"/>
<path fill="#FF6980" opacity="1.000000" stroke="none" 
	d="
M237.288773,58.334137 
	C226.645996,83.317375 216.213287,107.970581 205.782013,132.624405 
	C204.832291,134.869003 203.524857,137.038483 203.020721,139.380051 
	C201.863403,144.755524 198.461411,145.510559 193.686707,145.089676 
	C188.934860,144.670807 184.117233,144.997910 178.959167,144.997910 
	C183.098709,134.966110 186.851974,125.337708 191.080170,115.922585 
	C192.494720,112.772766 192.208328,110.368866 190.835632,107.434555 
	C180.137711,84.566322 169.566498,61.638802 158.621078,38.006081 
	C165.812653,38.006081 172.402100,37.764786 178.947220,38.195992 
	C180.371033,38.289795 182.153702,40.561245 182.893463,42.220913 
	C189.521179,57.090450 195.952438,72.047539 202.905807,88.047348 
	C206.171799,80.444374 209.128754,73.757561 211.924240,67.003914 
	C215.510666,58.339428 218.846466,49.568356 222.603958,40.980461 
	C223.199921,39.618340 225.403519,38.216518 226.932358,38.136154 
	C233.074921,37.813274 239.244400,38.002579 246.006317,38.002579 
	C243.075638,44.893139 240.287445,51.448704 237.288773,58.334137 
z"/>
<path fill="#FF697F" opacity="1.000000" stroke="none" 
	d="
M43.474113,52.017456 
	C39.120686,52.757187 34.662598,52.590374 31.411882,54.489841 
	C26.943678,57.100704 27.996754,61.374695 33.040771,62.985695 
	C40.675674,65.424194 48.394657,67.599602 56.028343,70.041756 
	C63.709110,72.498962 70.937706,75.779808 73.942902,84.096771 
	C77.900726,95.050163 72.832199,106.574516 61.626385,111.759361 
	C48.578953,117.796303 35.305023,117.696327 22.317245,111.640381 
	C13.911566,107.720963 7.758080,101.333397 4.269043,92.277908 
	C10.376244,90.506371 16.460691,88.741425 22.959742,86.856216 
	C25.862843,94.339394 31.391230,98.742386 39.041561,99.346626 
	C44.018826,99.739738 49.566467,100.059265 53.285480,95.201820 
	C56.199886,91.395294 55.768131,88.651527 51.147404,86.741409 
	C45.627232,84.459480 39.733887,83.094902 34.150738,80.946831 
	C27.841612,78.519463 21.470032,76.084930 15.539472,72.886192 
	C8.201082,68.928139 6.945654,57.422234 10.138494,50.503841 
	C14.491676,41.071152 26.974834,35.489941 36.094139,35.688347 
	C40.818188,35.791130 45.577194,36.258675 50.234440,37.060650 
	C60.786236,38.877678 67.708595,45.636196 73.680367,54.797714 
	C67.549736,56.648903 62.046371,58.405682 56.468021,59.878433 
	C55.746696,60.068867 54.642292,58.782871 53.707195,58.193695 
	C50.442642,56.136787 47.174519,54.085545 43.474113,52.017456 
z"/>
<path fill="#FF677E" opacity="1.000000" stroke="none" 
	d="
M435.922485,44.938732 
	C441.558960,37.006615 449.688721,36.340084 458.677917,37.227646 
	C458.677917,43.434521 458.677917,49.631573 458.677917,54.800713 
	C454.066833,55.512802 449.724274,55.693428 445.694702,56.910416 
	C437.937927,59.253071 436.248260,66.065704 434.998047,72.977585 
	C434.682343,74.723068 434.339111,76.463577 433.725952,78.973999 
	C433.299896,91.105820 433.156433,102.470009 433.013000,113.834198 
	C426.878998,113.834198 420.744995,113.834198 414.021545,113.834198 
	C414.021545,88.800247 414.021545,63.884556 414.548767,38.509079 
	C418.701721,38.050964 422.327515,38.050434 425.953278,38.054779 
	C433.047211,38.063278 433.033752,38.064583 433.126526,44.964729 
	C433.142426,46.145504 433.328613,47.323990 433.436127,48.503532 
	C433.692627,48.509552 433.949158,48.515572 434.205688,48.521591 
	C434.461212,47.632374 434.716736,46.743156 434.972260,45.853939 
	C434.972260,45.853939 435.035248,45.969784 435.152832,45.826782 
	C435.506927,45.452190 435.724274,45.203838 435.922485,44.938732 
z"/>
<path fill="#FFB3BF" opacity="1.000000" stroke="none" 
	d="
M101.543114,44.752182 
	C101.292908,44.662914 100.075676,44.306702 100.100410,44.160145 
	C101.101776,38.228298 97.671066,37.844440 93.060150,37.921841 
	C80.998550,38.124302 80.996750,37.978134 80.995972,50.036556 
	C80.993958,81.330612 80.991318,112.624672 80.986145,144.376831 
	C80.655701,143.873734 80.042908,142.912918 80.041588,141.951263 
	C79.994255,107.625267 80.003326,73.299194 80.014290,38.973129 
	C80.014442,38.497845 80.138969,38.022606 80.242966,37.279091 
	C87.018242,37.279091 93.758873,37.279091 100.832657,37.279091 
	C100.940414,39.718300 101.047882,42.150658 101.543114,44.752182 
z"/>
<path fill="#FFB3BF" opacity="1.000000" stroke="none" 
	d="
M350.507141,82.070473 
	C351.618164,81.753998 353.193085,81.060890 354.770874,81.054237 
	C372.486542,80.979408 390.202637,81.010193 408.376709,81.015388 
	C407.373596,81.345459 405.913483,81.951828 404.451019,81.957535 
	C386.625000,82.027107 368.798615,82.008430 350.507141,82.070473 
z"/>
<path fill="#FFB4C0" opacity="1.000000" stroke="none" 
	d="
M100.491501,144.798050 
	C100.083771,132.658310 100.012100,120.296234 100.083679,107.934982 
	C100.088402,107.119011 101.185638,106.309380 101.852974,105.787582 
	C101.620575,107.552391 101.055275,109.023735 101.039719,110.500870 
	C100.920082,121.858574 100.907150,133.217407 100.491501,144.798050 
z"/>
<path fill="#FF8D9E" opacity="1.000000" stroke="none" 
	d="
M433.422882,113.695442 
	C433.156433,102.470009 433.299896,91.105820 433.640747,79.381119 
	C433.836395,90.532639 433.834595,102.044662 433.422882,113.695442 
z"/>
<path fill="#FFA5B3" opacity="1.000000" stroke="none" 
	d="
M434.564331,45.728539 
	C434.716736,46.743156 434.461212,47.632374 434.205688,48.521591 
	C433.949158,48.515572 433.692627,48.509552 433.436127,48.503532 
	C433.328613,47.323990 433.142426,46.145504 433.126526,44.964729 
	C433.033752,38.064583 433.047211,38.063278 425.953278,38.054779 
	C422.327515,38.050434 418.701721,38.050964 414.618042,38.047913 
	C417.220612,37.691776 420.273071,37.183907 423.343689,37.023174 
	C426.756866,36.844517 430.186584,36.982273 434.156433,36.982273 
	C434.156433,40.114746 434.156433,42.858944 434.564331,45.728539 
z"/>
<path fill="#FFA5B3" opacity="1.000000" stroke="none" 
	d="
M435.667175,45.024155 
	C435.724274,45.203838 435.506927,45.452190 435.095154,45.858696 
	C435.083862,45.725597 435.247833,45.417587 435.667175,45.024155 
z"/>
<path fill="#000000" opacity="1.000000" stroke="none" 
	d="
M264.209290,86.480698 
	C260.788483,77.678734 261.514404,69.815125 266.379822,61.981705 
	C272.508606,52.114304 288.900116,51.903202 296.126526,58.491863 
	C302.714905,64.498817 305.514160,71.806511 303.702576,80.193512 
	C301.771210,89.135262 295.568970,95.324608 286.769867,97.440170 
	C279.742493,99.129768 269.798981,97.315117 264.209290,86.480698 
z"/>
<path fill="#000000" opacity="1.000000" stroke="none" 
	d="
M139.758392,64.454010 
	C146.646683,79.045135 139.037430,96.012619 123.724808,97.702751 
	C113.083679,98.877258 102.503349,92.234581 100.933144,79.835999 
	C99.374580,67.529343 106.008392,57.089760 115.550659,54.705608 
	C124.978439,52.350067 134.703918,55.633289 139.758392,64.454010 
z"/>
<path fill="#000000" opacity="1.000000" stroke="none" 
	d="
M380.094177,55.624371 
	C385.412994,58.615593 387.457794,63.091042 388.234314,68.723709 
	C375.268280,68.723709 362.734589,68.723709 350.194122,68.723709 
	C350.549347,57.093513 364.686218,50.497334 374.250427,53.693878 
	C376.086975,54.307693 377.965240,54.796642 380.094177,55.624371 
z"/>
</svg>